REM DIRINDEX 1\3,1\2\4,1\2\5
REM DIRNAME cjc101,folder01,folder02,folder03,folder04
TITLE ""
FILE "I-2-176.mp3" MP3
  TRACK 01 AUDIO
    TITLE "0:"
    INDEX 01 00:00:00
  TRACK 02 AUDIO
    TITLE "4:cjc101_0832"
    INDEX 01 00:00:03
  TRACK 03 AUDIO
    TITLE "0:"
    INDEX 01 00:01:03
  TRACK 04 AUDIO
    TITLE "5:cjc101_0833"
    INDEX 01 00:01:30
  TRACK 05 AUDIO
    TITLE "0:"
    INDEX 01 00:05:30
